<svg width="20" height="20" fill="none" xmlns="http://www.w3.org/2000/svg"><path d="M10 .313C4.66.313.312 4.66.312 10c0 5.34 4.348 9.688 9.688 9.688 5.34 0 9.688-4.348 9.688-9.688C19.688 4.66 15.34.312 10 .312zm6.406 4.468a8.22 8.22 0 011.867 5.157c-.273-.06-3.007-.614-5.761-.266a27.827 27.827 0 00-.727-1.625c3.059-1.254 4.445-3.031 4.621-3.266zm-.922-.957c-.148.211-1.394 1.887-4.336 2.989a44.244 44.244 0 00-3.085-4.844 8.252 8.252 0 017.421 1.855zm-9.004-1.3c.22.3 1.696 2.347 3.067 4.785C5.676 8.336 2.266 8.32 1.898 8.316A8.323 8.323 0 016.48 2.523zm-4.753 7.488c0-.086 0-.168.003-.254.364.008 4.372.058 8.504-1.176.239.465.465.934.672 1.402-2.992.844-5.71 3.266-7.054 5.563a8.256 8.256 0 01-2.125-5.535zm3.195 6.527c.863-1.766 3.21-4.047 6.547-5.187 1.16 3.02 1.64 5.55 1.765 6.273a8.244 8.244 0 01-8.312-1.086zm9.703.332c-.086-.504-.523-2.926-1.61-5.898 2.594-.414 4.872.265 5.153.355a8.276 8.276 0 01-3.543 5.543z" fill="#373C42"/></svg>