<svg width="20" height="14" fill="none" xmlns="http://www.w3.org/2000/svg"><path d="M8.056 6.34c1.104-.535 1.68-1.344 1.68-2.603C9.736 1.255 7.91.651 5.802.651H0v12.46h5.965c2.236 0 4.337-1.087 4.337-3.618 0-1.565-.733-2.722-2.246-3.154zM2.705 2.777h2.538c.976 0 1.854.277 1.854 1.424 0 1.058-.684 1.483-1.65 1.483H2.706V2.778zm2.892 8.216H2.705v-3.43h2.948c1.19 0 1.944.502 1.944 1.778 0 1.259-.9 1.653-2 1.653zm12.448-8.462h-4.99V1.305h4.99v1.227zM20 8.73c0-2.669-1.542-4.894-4.337-4.894-2.715 0-4.559 2.067-4.559 4.774 0 2.81 1.747 4.736 4.56 4.736 2.128 0 3.506-.97 4.17-3.034h-2.16c-.233.77-1.191 1.178-1.934 1.178-1.434 0-2.188-.851-2.188-2.296h6.427c.01-.148.021-.306.021-.464zm-6.444-1.097c.08-1.185.857-1.927 2.03-1.927 1.23 0 1.848.731 1.952 1.927h-3.982z" fill="#373C42"/></svg>