<svg width="20" height="14" viewBox="0 0 20 14" fill="none" xmlns="http://www.w3.org/2000/svg">
<path d="M8.05556 6.33906C9.15972 5.80469 9.73611 4.99609 9.73611 3.7375C9.73611 1.25547 7.90972 0.65078 5.80208 0.65078H0V13.1102H5.96528C8.20139 13.1102 10.3021 12.0238 10.3021 9.49258C10.3021 7.92813 9.56944 6.77149 8.05556 6.33906ZM2.70486 2.77773H5.24306C6.21875 2.77773 7.09722 3.05547 7.09722 4.20156C7.09722 5.25977 6.41319 5.68516 5.44792 5.68516H2.70486V2.77773ZM5.59722 10.9938H2.70486V7.5625H5.65278C6.84375 7.5625 7.59722 8.06524 7.59722 9.34141C7.59722 10.6 6.69792 10.9938 5.59722 10.9938ZM18.0451 2.53164H13.0556V1.30469H18.0451V2.53164ZM20 8.72969C20 6.06133 18.4583 3.83594 15.6632 3.83594C12.9479 3.83594 11.1042 5.90313 11.1042 8.61016C11.1042 11.4191 12.8507 13.3457 15.6632 13.3457C17.7917 13.3457 19.1701 12.3754 19.8333 10.3117H17.6736C17.441 11.0816 16.4826 11.4895 15.7396 11.4895C14.3056 11.4895 13.5521 10.6387 13.5521 9.19375H19.9792C19.9896 9.0461 20 8.88789 20 8.72969ZM13.5556 7.63281C13.6354 6.44805 14.4132 5.70625 15.5868 5.70625C16.816 5.70625 17.434 6.4375 17.5382 7.63281H13.5556Z" fill="#373C42"/>
</svg>
