<svg width="20" height="20" viewBox="0 0 20 20" fill="none" xmlns="http://www.w3.org/2000/svg">
<path d="M10 0.3125C4.66016 0.3125 0.3125 4.66016 0.3125 10C0.3125 15.3398 4.66016 19.6875 10 19.6875C15.3398 19.6875 19.6875 15.3398 19.6875 10C19.6875 4.66016 15.3398 0.3125 10 0.3125ZM16.4062 4.78125C17.5586 6.1875 18.2578 7.98438 18.2734 9.9375C18 9.87891 15.2656 9.32422 12.5117 9.67188C12.2852 9.125 12.0742 8.64062 11.7852 8.04688C14.8438 6.79297 16.2305 5.01562 16.4062 4.78125ZM15.4844 3.82422C15.3359 4.03516 14.0898 5.71094 11.1484 6.8125C9.79297 4.32031 8.28906 2.27344 8.0625 1.96875C10.6836 1.33594 13.4492 2.01953 15.4844 3.82422ZM6.48047 2.52344C6.69922 2.82422 8.17578 4.87109 9.54688 7.30859C5.67578 8.33594 2.26562 8.32031 1.89844 8.31641C2.4375 5.75 4.16797 3.61719 6.48047 2.52344ZM1.72656 10.0117C1.72656 9.92578 1.72656 9.84375 1.73047 9.75781C2.09375 9.76562 6.10156 9.81641 10.2344 8.58203C10.4727 9.04688 10.6992 9.51562 10.9062 9.98438C7.91406 10.8281 5.19531 13.25 3.85156 15.5469C2.53125 14.0781 1.72656 12.1367 1.72656 10.0117ZM4.92188 16.5391C5.78516 14.7734 8.13281 12.4922 11.4688 11.3516C12.6289 14.3711 13.1094 16.9023 13.2344 17.625C10.5703 18.7617 7.37109 18.4531 4.92188 16.5391ZM14.625 16.8711C14.5391 16.3672 14.1016 13.9453 13.0156 10.9727C15.6094 10.5586 17.8867 11.2383 18.168 11.3281C17.8008 13.6289 16.4805 15.6172 14.625 16.8711Z" fill="#373C42"/>
</svg>
